# xmcd
#
# Track frame offsets:
# 150
# 12035
# 24332
# 37525
# 55322
# 66467
# 81560
# 95872
# 105670
# 121425
# 134805
# 146357
# 166640
# 179380
# 193420
# 207012
# 220587
# 234637
#
# Disc length: 3292 seconds
#
#
# Revision: 0
# Processed by: cddbd v1.5.1PL2 Copyright (c) Steve Scherf et al.
# Submitted via: FreeRIP 2.944 
#
DISCID=000cda12
DTITLE=Various Artist - The Old Style Love Song 3
DYEAR=1900
DGENRE=Oldies
TTITLE0=only you
TTITLE1=500 miles away from home
TTITLE2=cotton fields
TTITLE3=kiss me goodbye
TTITLE4=crazy love
TTITLE5=it never rains in southern california
TTITLE6=take me home country road
TTITLE7=snow bird
TTITLE8=paloma blanca
TTITLE9=tennessee waltz
TTITLE10=rhythm of the rain
TTITLE11=the house of the rising sun
TTITLE12=detroit city
TTITLE13=evergreen
TTITLE14=to love somebody
TTITLE15=when will i see you again
TTITLE16=heart of gold
TTITLE17=will you love me tomorrow
EXTD=
EXTT0=
EXTT1=
EXTT2=
EXTT3=
EXTT4=
EXTT5=
EXTT6=
EXTT7=
EXTT8=
EXTT9=
EXTT10=
EXTT11=
EXTT12=
EXTT13=
EXTT14=
EXTT15=
EXTT16=
EXTT17=
PLAYORDER=
